<svg xmlns="http://www.w3.org/2000/svg" width="57.986" height="58.962" viewBox="0 0 57.986 58.962">
  <path id="Path_761" data-name="Path 761" d="M64.272,12.848a30.125,30.125,0,0,0-9.109-1.58H53.839A26.452,26.452,0,0,0,47.909,12c3.7.851,10.75,2.614,14.691,3.891,3.939,1.337,9.613,3.588,10.508,3.952s1.494.852,1.372,1.763c-.178.912-1.492,1.1-2.388.851-.9-.3-8.479-2.371-9.075-2.554-.657-.12-1.495-.242-1.552,0-.062.121-.119.365,1.073.913S73.706,26.04,74.96,26.771c1.314.668,1.969,1.579,1.672,2.309-.3.669-1.314,1.034-2.867.486-1.551-.607-11.882-4.681-12.538-4.984s-1.434-.3-1.494-.124c-.058.245.417.67,1.074,1.1.659.366,12.6,6.446,13.975,7.234,1.312.73,1.91,1.643,1.612,2.373-.358.73-1.195,1.094-2.747.426-2.389-1.093-11.884-5.654-12.959-6.02-1.013-.362-2.267-.85-2.447-.546-.12.243.715.971,1.791,1.762,1.074.731,9.435,6.2,10.749,7.174a1.982,1.982,0,0,1,.657,2.616c-.359.605-1.315.605-2.27.058-1.434-.788-11.465-6.564-13.615-7.9S50.6,30.782,50,31.209c-.6.485-.956,2.309.238,5.228,1.134,2.918,1.731,4.8.9,5.836s-1.315.366-1.912-.425a99.134,99.134,0,0,1-5.374-8.389c-1.491-2.616-3.4-7.3-4.3-8.694a14.924,14.924,0,0,0-5.194-4.926c-2.449,2.31-7.7,8.634-8.539,19.334-.028.355-.048.715-.061,1.08V41.8a30.569,30.569,0,0,0,4.6,14.879,30.188,30.188,0,0,0,15.406,12.1,28.759,28.759,0,0,0,16,.607C58,68.538,50.718,66.835,46.775,65.5c-3.94-1.277-9.435-3.586-10.33-3.952-.954-.426-1.553-.851-1.373-1.763s1.493-1.1,2.388-.851c.837.245,8.419,2.31,9.078,2.493.6.182,1.431.245,1.551.061.061-.123.061-.426-1.075-.912-1.194-.549-11.166-5.228-12.48-5.958-1.254-.731-1.97-1.643-1.612-2.31.3-.73,1.254-1.094,2.806-.486,1.612.547,11.943,4.62,12.6,4.924s1.373.365,1.431.121-.358-.668-1.015-1.031S36.086,49.326,34.775,48.6c-1.316-.788-1.972-1.7-1.614-2.43.3-.67,1.195-1.1,2.747-.365,2.328,1.032,11.883,5.593,12.959,6.019,1.014.363,2.269.851,2.449.486.058-.244-.719-.972-1.794-1.7s-9.433-6.262-10.807-7.235a1.956,1.956,0,0,1-.6-2.614c.3-.61,1.316-.61,2.27-.061,1.432.85,11.406,6.565,13.555,7.9,2.209,1.337,5.015,2.008,5.612,1.521s.957-2.31-.24-5.228-1.729-4.744-.893-5.776,1.254-.366,1.91.426c.6.791,3.88,5.716,5.373,8.328,1.494,2.677,3.344,7.3,4.24,8.7A15.95,15.95,0,0,0,75.2,61.546a28.189,28.189,0,0,0,8-14.954,30.456,30.456,0,0,0-4-21.707A28.867,28.867,0,0,0,64.272,12.848" transform="translate(-25.756 -11.268)" fill="#006ab6" fill-rule="evenodd"/>
</svg>
